<svg xmlns="http://www.w3.org/2000/svg" version="1.1" xmlns:xlink="http://www.w3.org/1999/xlink" xmlns:svgjs="http://svgjs.dev/svgjs" width="512" height="512"><svg width="512" height="512" viewBox="0 0 512 512" fill="none" xmlns="http://www.w3.org/2000/svg">
<g clip-path="url(#clip0_2843_366)">
<path d="M315.916 5.10938C315.933 5.17948 315.951 5.24917 315.966 5.31967C316.046 5.72222 316.116 6.14925 316.008 6.55342C315.631 7.96635 314.573 9.50365 313.921 10.8461C313.243 12.2459 312.766 13.7442 312.346 15.2395C308.791 27.8754 314.558 42.3844 325.253 49.7751C332.258 54.6156 340.713 56.9404 349.181 55.3384C355.861 54.0746 360.953 50.3901 364.686 44.7849C365.563 43.4649 366.463 41.3116 367.733 40.3974L368.273 40.5151C367.951 44.4644 367.208 48.2099 365.738 51.9079C362.021 61.2714 354.606 68.4186 345.351 72.2909C336.601 75.9506 326.338 75.7376 317.623 72.0729C313.226 70.2539 309.23 67.5856 305.866 64.2208C302.501 60.856 299.832 56.8606 298.013 52.4634C294.219 42.9386 294.336 32.3013 298.341 22.8629C301.563 15.3818 308.266 8.12215 315.916 5.10938Z" fill="#2B7EFA"></path>
<path d="M315.916 5.10803C323.104 1.34068 334.711 0.624572 342.419 3.01726C352.214 6.05818 359.929 12.6132 364.649 21.7685C367.619 27.5295 368.679 34.078 368.274 40.5138L367.734 40.396C366.464 41.3103 365.564 43.4635 364.686 44.7835C360.954 50.3888 355.861 54.0733 349.181 55.337C340.714 56.939 332.259 54.6143 325.254 49.7738C314.559 42.383 308.791 27.874 312.346 15.2382C312.766 13.7428 313.244 12.2445 313.921 10.8448C314.574 9.50231 315.631 7.96501 316.009 6.55208C316.116 6.14791 316.046 5.72088 315.966 5.31833C315.951 5.24783 315.934 5.17813 315.916 5.10803Z" fill="#75ACFF"></path>
<path d="M337.046 19.5435C338.909 19.4293 340.554 19.7151 342.229 20.5713C344.571 21.7679 346.454 23.9423 347.224 26.4663C347.603 27.7354 347.721 29.0684 347.569 30.3843C347.417 31.7003 347 32.9716 346.341 34.121C344.736 36.9703 342.361 38.2325 339.336 39.074C337.256 39.2605 335.289 38.85 333.461 37.8213C331.159 36.523 329.331 34.353 328.659 31.773C328.335 30.4972 328.28 29.1677 328.498 27.8695C328.717 26.5713 329.203 25.3329 329.926 24.2331C331.601 21.6461 334.099 20.209 337.046 19.5435Z" fill="#EBF2FE"></path>
<path d="M229.124 512.002C227.595 511.329 225.612 511.102 223.98 510.699C219.114 509.497 214.768 507.687 210.722 504.689C194.33 492.549 187.298 458.849 184.068 439.609C182.825 432.212 181.837 417.832 177.312 412.389C174.763 409.324 171.215 407.499 167.222 407.272C161.675 406.957 151.605 409.837 145.713 411.017C129.287 414.304 111.794 417.049 95.0246 415.362C79.4034 413.787 64.7614 408.389 54.6114 395.844C46.9784 386.412 44.7066 374.877 45.9691 363.032C47.8599 345.294 59.5986 329.137 71.5209 316.527C73.7269 314.194 76.0974 312.007 78.3606 309.729C80.9971 307.074 83.5226 304.274 86.2351 301.702C92.0504 296.184 98.5691 290.759 104.794 285.697C108.835 282.412 112.437 278.582 112.888 273.117C113.129 270.202 111.92 266.932 110.303 264.537C108.203 261.422 104.926 258.797 102.251 256.149C98.6621 252.597 95.1364 248.966 91.6029 245.36C84.8474 238.463 78.5709 230.959 72.4609 223.494C63.3244 212.331 48.6914 192.63 50.2334 177.827C50.7771 172.608 53.1321 167.812 57.3011 164.537C62.0651 160.795 69.9216 159.753 75.7744 160.469L75.5054 160.493C74.7571 160.555 74.0699 160.555 73.3206 160.505C72.1896 160.43 71.6854 160.548 70.8554 161.329C68.6241 163.429 67.4576 166.11 67.4321 169.18C67.3261 181.961 92.4519 207.493 101.259 216.092C108.235 223.029 115.446 229.725 122.879 236.171C128.175 240.791 139.296 248.987 143.014 254.234C146.196 258.727 148.131 264.542 148.227 270.052C148.342 276.544 145.033 282.302 140.578 286.789C134.372 293.039 127.561 298.777 121.216 304.909C110.352 315.409 93.6101 333.122 87.9974 347.074C86.7511 350.174 86.0204 353.452 86.0241 356.799C86.0306 362.254 88.1129 367.652 92.0124 371.504C100.985 380.369 115.728 380.464 127.54 380.307C139.347 380.149 151.096 378.887 162.78 377.249C172.839 375.842 188.135 371.872 197.732 373.342C202.461 374.067 206.744 376.632 210.146 379.929C213.352 382.983 215.671 386.848 216.856 391.114C218.691 397.614 218.469 405.412 219.252 412.187C221.76 433.904 227.145 480.697 244.161 495.142C247.14 497.672 250.011 498.894 253.834 499.584C254.836 499.764 255.816 499.679 256.739 500.152C251.161 504.869 246.094 508.732 238.865 510.587C236.979 511.069 234.344 511.064 232.692 512.002H229.124Z" fill="#2B7EFA"></path>
<path d="M202.3 72.1252C212.075 71.9774 220.045 75.8347 226.987 82.5532C238.835 94.0179 250.912 118.725 256.937 134.291C258.797 139.1 262.179 149.789 264.729 153.362C265.65 154.677 266.877 155.746 268.305 156.479C269.733 157.211 271.317 157.584 272.922 157.566C274.719 157.536 276.478 157.04 278.027 156.126C281.687 154.001 284.752 150.578 288.072 147.957C298.842 139.454 325.534 119.054 338.622 131.345C342.287 134.788 343.917 140.117 344.014 145.049C344.229 155.839 340.564 167.708 337.574 178.013C336.362 182.195 334.274 187.374 334.357 191.72C334.399 193.966 335.494 196.069 337.077 197.625C339.317 199.826 342.649 200.759 345.734 200.657C351.484 200.467 357.237 199.358 362.997 199.082C389.219 197.827 436.349 198.208 456.444 216.726C462.859 222.636 467.709 231.243 468.034 240.111C468.407 250.338 464.044 259.408 457.097 266.748C443.567 281.046 418.427 291.051 400.274 298.113C394.927 300.193 386.817 302.316 382.492 305.853C378.467 309.146 376.747 313.773 376.849 318.921C376.942 323.473 389.749 348.793 392.452 355.311C396.281 364.671 399.836 374.141 403.114 383.708C407.829 396.096 410.757 412.126 405.182 424.711C401.442 433.156 395.202 439.363 386.527 442.656C382.668 444.114 378.597 444.933 374.474 445.081C355.259 445.838 328.549 436.048 311.174 428.121C308.53 426.916 305.904 425.671 303.297 424.388C298.549 422.043 292.757 418.531 287.287 420.528C284.482 421.553 282.569 423.971 281.372 426.621C281.337 426.698 281.307 426.778 281.272 426.858C279.384 432.336 279.199 437.981 278.104 443.618C274.377 462.833 269.514 484.711 256.737 500.148C255.814 499.676 254.834 499.761 253.832 499.581C250.009 498.891 247.138 497.668 244.159 495.138C227.143 480.693 221.758 433.901 219.25 412.183C218.467 405.408 218.689 397.611 216.854 391.111C215.669 386.845 213.35 382.98 210.144 379.926C206.742 376.628 202.459 374.063 197.73 373.338C188.133 371.868 172.837 375.838 162.778 377.246C151.094 378.883 139.345 380.146 127.538 380.303C115.726 380.461 100.983 380.366 92.0103 371.501C88.1108 367.648 86.0285 362.251 86.022 356.796C86.0183 353.448 86.749 350.171 87.9953 347.071C93.608 333.118 110.35 315.406 121.214 304.906C127.559 298.773 134.37 293.036 140.576 286.786C145.031 282.298 148.34 276.541 148.225 270.048C148.129 264.538 146.194 258.723 143.012 254.231C139.294 248.983 128.173 240.787 122.877 236.167C115.444 229.722 108.233 223.025 101.257 216.088C92.4498 207.49 67.324 181.958 67.43 169.177C67.4555 166.107 68.622 163.425 70.8533 161.326C71.6833 160.545 72.1875 160.427 73.3185 160.502C74.0678 160.552 74.755 160.552 75.5033 160.49L75.7723 160.466C89.581 160.515 115.04 169.708 128.261 174.958C133.479 177.03 138.505 179.943 144.019 181.124C147.16 180.286 149.799 179.124 151.255 176.021C153.105 172.08 153.624 160.171 154.265 154.963C156.848 133.959 163.45 98.9504 178.377 83.1382C184.757 76.3802 192.897 72.3667 202.3 72.1252Z" fill="#75ACFF"></path>
<path d="M298.748 265.329C304.384 264.628 310.089 265.893 314.901 268.909C320.631 272.559 325.006 278.702 326.421 285.367C327.113 288.659 327.138 292.057 326.495 295.36C325.852 298.662 324.553 301.802 322.676 304.594C318.568 310.822 312.423 314.207 305.251 315.689C298.796 316.564 292.508 314.884 287.183 311.142C284.459 309.224 282.138 306.787 280.355 303.972C278.572 301.157 277.361 298.018 276.791 294.734C275.694 288.102 277.523 281.134 281.428 275.704C285.608 269.889 291.743 266.452 298.748 265.329Z" fill="#EBF2FE"></path>
<path d="M144.023 181.124C147.164 180.286 149.803 179.124 151.259 176.021C153.109 172.08 153.629 160.171 154.269 154.963C156.852 133.959 163.454 98.9503 178.381 83.138C184.762 76.38 192.901 72.3665 202.305 72.125L202.532 72.6012C202.23 72.8787 201.938 73.1585 201.643 73.4443C200.792 74.2695 199.567 74.8488 198.557 75.4875C196.438 76.8273 194.842 78.7183 193.436 80.774C182.341 96.9945 179.583 139.654 178.797 159.372C178.471 167.528 180.409 179.66 173.973 185.708C172.694 186.909 171.187 187.841 169.542 188.451C167.897 189.06 166.146 189.334 164.393 189.257C160.617 189.09 146.424 183.844 144.023 181.124Z" fill="#2B7EFA"></path>
<path d="M281.27 426.861C281.208 426.779 281.14 426.699 281.083 426.614C280.65 425.994 280.568 425.501 280.57 424.759C280.58 418.546 281.715 412.069 282.283 405.871C282.788 400.376 282.753 394.709 283.715 389.281C284.678 383.851 287.4 378.649 292.01 375.464C296.4 372.434 302.083 371.909 307.16 373.251C313.87 375.024 320.99 380.124 326.905 383.706C341.083 392.296 364.438 406.724 380.665 409.621C386.14 410.596 391.18 410.489 395.86 407.159C400.648 403.754 402.275 397.584 402.598 391.969C402.76 389.164 402.623 386.504 403.113 383.711C407.828 396.099 410.755 412.129 405.18 424.714C401.44 433.159 395.2 439.366 386.525 442.659C382.666 444.117 378.596 444.936 374.473 445.084C355.258 445.841 328.548 436.051 311.173 428.124C308.529 426.919 305.903 425.674 303.295 424.391C298.548 422.046 292.755 418.534 287.285 420.531C284.48 421.556 282.568 423.974 281.37 426.624C281.335 426.701 281.305 426.781 281.27 426.861Z" fill="#2B7EFA"></path>
</g>
<defs>
<clipPath id="SvgjsClipPath1013">
<rect width="512" height="512" fill="white"></rect>
</clipPath>
</defs>
</svg><style>@media (prefers-color-scheme: light) { :root { filter: none; } }
@media (prefers-color-scheme: dark) { :root { filter: none; } }
</style></svg>