<svg version="1.1" xmlns="http://www.w3.org/2000/svg" style="display: block;" viewBox="0 0 2048 2048" width="512" height="512">
<path transform="translate(0,0)" fill="rgb(63,196,245)" d="M 1263.66 20.438 C 1263.73 20.7184 1263.8 20.9972 1263.86 21.2792 C 1264.18 22.8894 1264.46 24.5975 1264.03 26.2142 C 1262.52 31.8659 1258.29 38.0151 1255.68 43.3849 C 1252.97 48.984 1251.06 54.9771 1249.38 60.9585 C 1235.16 111.502 1258.23 169.538 1301.01 199.101 C 1329.03 218.463 1362.85 227.762 1396.72 221.354 C 1423.44 216.299 1443.81 201.561 1458.74 179.14 C 1462.25 173.86 1465.85 165.247 1470.93 161.59 L 1473.09 162.061 C 1471.8 177.858 1468.83 192.84 1462.95 207.632 C 1448.08 245.086 1418.42 273.675 1381.4 289.164 C 1346.4 303.803 1305.35 302.951 1270.49 288.292 A 144.776 144.776 0 0 1 1192.05 209.854 A 155.659 155.659 0 0 1 1193.36 91.4519 C 1206.25 61.5276 1233.06 32.4891 1263.66 20.438 z"/>
<path transform="translate(0,0)" fill="rgb(114,218,252)" d="M 1263.66 20.438 C 1292.41 5.3686 1338.84 2.50415 1369.67 12.0749 C 1408.85 24.2386 1439.71 50.4585 1458.59 87.0798 C 1470.47 110.124 1474.71 136.318 1473.09 162.061 L 1470.93 161.59 C 1465.85 165.247 1462.25 173.86 1458.74 179.14 C 1443.81 201.561 1423.44 216.299 1396.72 221.354 C 1362.85 227.762 1329.03 218.463 1301.01 199.101 C 1258.23 169.538 1235.16 111.502 1249.38 60.9585 C 1251.06 54.9771 1252.97 48.984 1255.68 43.3849 C 1258.29 38.0151 1262.52 31.8659 1264.03 26.2142 C 1264.46 24.5975 1264.18 22.8894 1263.86 21.2792 C 1263.8 20.9972 1263.73 20.7184 1263.66 20.438 z"/>
<path transform="translate(0,0)" fill="rgb(224,247,252)" d="M 1348.19 78.1688 C 1355.64 77.7122 1362.22 78.8552 1368.92 82.2801 C 1378.29 87.0665 1385.82 95.7642 1388.9 105.86 A 39.0798 39.0798 0 0 1 1385.37 136.479 C 1378.95 147.876 1369.45 152.925 1357.35 156.291 C 1349.03 157.037 1341.16 155.395 1333.85 151.28 C 1324.64 146.087 1317.33 137.407 1314.64 127.087 A 37.8953 37.8953 0 0 1 1319.71 96.9273 C 1326.41 86.5791 1336.4 80.831 1348.19 78.1688 z"/>
<path transform="translate(0,0)" fill="rgb(63,196,245)" d="M 916.492 2048 C 910.374 2045.31 902.441 2044.4 895.916 2042.79 C 876.451 2037.98 859.066 2030.74 842.884 2018.75 C 777.313 1970.19 749.187 1835.39 736.265 1758.43 C 731.296 1728.84 727.342 1671.32 709.242 1649.55 C 699.045 1637.29 684.854 1629.99 668.883 1629.08 C 646.696 1627.82 606.415 1639.34 582.845 1644.06 C 517.142 1657.21 447.169 1668.19 380.093 1661.44 C 317.608 1655.14 259.04 1633.55 218.44 1583.37 C 187.908 1545.64 178.821 1499.5 183.871 1452.12 C 191.434 1381.17 238.389 1316.54 286.078 1266.1 C 294.902 1256.77 304.384 1248.02 313.437 1238.91 C 323.983 1228.29 334.085 1217.09 344.935 1206.8 C 368.196 1184.73 394.271 1163.03 419.172 1142.78 C 435.333 1129.64 449.741 1114.32 451.547 1092.46 C 452.511 1080.8 447.673 1067.72 441.208 1058.14 C 432.806 1045.68 419.7 1035.18 408.999 1024.59 C 394.643 1010.38 380.54 995.859 366.406 981.432 C 339.384 953.847 314.278 923.831 289.838 893.97 C 253.292 849.317 194.76 770.515 200.928 711.3 C 203.103 690.426 212.523 671.243 229.199 658.143 C 248.255 643.175 279.681 639.005 303.092 641.87 L 302.016 641.967 C 299.023 642.215 296.274 642.215 293.277 642.015 C 288.753 641.713 286.736 642.187 283.416 645.311 C 274.491 653.708 269.825 664.434 269.723 676.714 C 269.299 727.839 369.802 829.965 405.029 864.36 A 1730.61 1730.61 0 0 0 491.51 944.676 C 512.696 963.156 557.18 995.94 572.052 1016.93 C 584.778 1034.9 592.517 1058.16 592.904 1080.2 C 593.361 1106.17 580.128 1129.2 562.307 1147.15 C 537.482 1172.15 510.239 1195.1 484.86 1219.63 C 441.403 1261.63 374.435 1332.48 351.984 1388.29 C 346.999 1400.69 344.076 1413.8 344.091 1427.19 C 344.117 1449.01 352.446 1470.6 368.044 1486.01 C 403.933 1521.47 462.907 1521.85 510.156 1521.22 C 557.382 1520.59 604.377 1515.54 651.113 1508.99 C 691.351 1503.36 752.536 1487.48 790.924 1493.36 C 809.84 1496.26 826.971 1506.52 840.577 1519.71 A 98.0274 98.0274 0 0 1 867.419 1564.45 C 874.758 1590.45 873.871 1621.64 877.002 1648.74 C 887.034 1735.61 908.576 1922.78 976.64 1980.56 C 988.556 1990.68 1000.04 1995.57 1015.33 1998.33 C 1019.34 1999.05 1023.26 1998.71 1026.95 2000.6 C 1004.64 2019.47 984.369 2034.92 955.453 2042.34 C 947.912 2044.27 937.372 2044.25 930.763 2048 L 916.492 2048 z"/>
<path transform="translate(0,0)" fill="rgb(114,218,252)" d="M 809.204 288.507 C 848.303 287.916 880.181 303.345 907.952 330.219 C 955.342 376.078 1003.65 474.905 1027.75 537.17 C 1035.19 556.408 1048.72 599.162 1058.92 613.456 A 39.4565 39.4565 0 0 0 1091.69 630.269 A 41.5282 41.5282 0 0 0 1112.11 624.509 C 1126.75 616.009 1139.01 602.318 1152.29 591.835 C 1195.37 557.821 1302.14 476.222 1354.49 525.386 C 1369.15 539.157 1375.67 560.475 1376.06 580.202 C 1376.92 623.361 1362.26 670.84 1350.3 712.059 C 1345.45 728.786 1337.1 749.501 1337.43 766.885 C 1337.6 775.871 1341.98 784.284 1348.31 790.505 C 1357.27 799.31 1370.6 803.044 1382.94 802.636 C 1405.94 801.876 1428.95 797.437 1451.99 796.335 C 1556.88 791.316 1745.4 792.837 1825.78 866.91 C 1851.44 890.551 1870.84 924.98 1872.14 960.451 C 1873.63 1001.36 1856.18 1037.64 1828.39 1067 C 1774.27 1124.19 1673.71 1164.21 1601.1 1192.46 C 1579.71 1200.78 1547.27 1209.27 1529.97 1223.42 C 1513.87 1236.59 1506.99 1255.1 1507.4 1275.69 C 1507.77 1293.9 1559 1395.18 1569.81 1421.25 A 2085.47 2085.47 0 0 1 1612.46 1534.84 C 1631.32 1584.39 1643.03 1648.51 1620.73 1698.85 C 1605.77 1732.63 1580.81 1757.46 1546.11 1770.63 A 151.703 151.703 0 0 1 1497.9 1780.33 C 1421.04 1783.36 1314.2 1744.2 1244.7 1712.49 A 1178.92 1178.92 0 0 1 1213.19 1697.56 C 1194.2 1688.18 1171.03 1674.13 1149.15 1682.12 C 1137.93 1686.22 1130.28 1695.89 1125.49 1706.49 C 1125.35 1706.8 1125.23 1707.12 1125.09 1707.44 C 1117.54 1729.35 1116.8 1751.93 1112.42 1774.48 C 1097.51 1851.34 1078.06 1938.85 1026.95 2000.6 C 1023.26 1998.71 1019.34 1999.05 1015.33 1998.33 C 1000.04 1995.57 988.556 1990.68 976.64 1980.56 C 908.576 1922.78 887.034 1735.61 877.002 1648.74 C 873.871 1621.64 874.758 1590.45 867.419 1564.45 A 98.0274 98.0274 0 0 0 840.577 1519.71 C 826.971 1506.52 809.84 1496.26 790.924 1493.36 C 752.536 1487.48 691.351 1503.36 651.113 1508.99 C 604.377 1515.54 557.382 1520.59 510.156 1521.22 C 462.907 1521.85 403.933 1521.47 368.044 1486.01 C 352.446 1470.6 344.117 1449.01 344.091 1427.19 C 344.076 1413.8 346.999 1400.69 351.984 1388.29 C 374.435 1332.48 441.403 1261.63 484.86 1219.63 C 510.239 1195.1 537.482 1172.15 562.307 1147.15 C 580.128 1129.2 593.361 1106.17 592.904 1080.2 C 592.517 1058.16 584.778 1034.9 572.052 1016.93 C 557.18 995.94 512.696 963.156 491.51 944.676 A 1730.61 1730.61 0 0 1 405.029 864.36 C 369.802 829.965 269.299 727.839 269.723 676.714 C 269.825 664.434 274.491 653.708 283.416 645.311 C 286.736 642.187 288.753 641.713 293.277 642.015 C 296.274 642.215 299.023 642.215 302.016 641.967 L 303.092 641.87 C 358.327 642.065 460.162 678.84 513.047 699.838 C 533.919 708.126 554.023 719.78 576.079 724.504 C 588.642 721.149 599.197 716.503 605.022 704.092 C 612.422 688.328 614.5 640.69 617.062 619.858 C 627.393 535.842 653.801 395.808 713.511 332.559 C 739.032 305.527 771.591 289.473 809.204 288.507 z"/>
<path transform="translate(0,0)" fill="rgb(224,247,252)" d="M 1194.99 1061.32 A 98.6996 98.6996 0 0 1 1259.6 1075.64 C 1282.52 1090.24 1300.02 1114.81 1305.68 1141.47 A 100.704 100.704 0 0 1 1290.7 1218.38 C 1274.27 1243.29 1249.69 1256.83 1221 1262.76 C 1195.18 1266.26 1170.03 1259.54 1148.73 1244.57 A 101.483 101.483 0 0 1 1107.16 1178.94 C 1102.77 1152.41 1110.09 1124.54 1125.71 1102.82 C 1142.43 1079.56 1166.97 1065.81 1194.99 1061.32 z"/>
<path transform="translate(0,0)" fill="rgb(63,196,245)" d="M 576.079 724.504 C 588.642 721.149 599.197 716.503 605.022 704.092 C 612.422 688.328 614.5 640.69 617.062 619.858 C 627.393 535.842 653.801 395.808 713.511 332.559 C 739.032 305.527 771.591 289.473 809.204 288.507 L 810.114 290.412 C 808.905 291.522 807.736 292.641 806.557 293.784 C 803.153 297.085 798.253 299.402 794.213 301.957 C 785.738 307.316 779.352 314.88 773.728 323.103 C 729.349 387.985 718.319 558.622 715.172 637.495 C 713.871 670.117 721.62 718.646 695.878 742.838 A 52.5919 52.5919 0 0 1 657.557 757.034 C 642.454 756.366 585.683 735.381 576.079 724.504 z"/>
<path transform="translate(0,0)" fill="rgb(63,196,245)" d="M 1125.09 1707.44 C 1124.84 1707.11 1124.57 1706.79 1124.34 1706.45 C 1122.61 1703.97 1122.28 1702 1122.29 1699.03 C 1122.33 1674.18 1126.87 1648.27 1129.14 1623.48 C 1131.16 1601.5 1131.02 1578.83 1134.87 1557.12 C 1138.72 1535.4 1149.61 1514.59 1168.05 1501.85 C 1185.61 1489.73 1208.34 1487.63 1228.65 1493 C 1255.49 1500.09 1283.97 1520.49 1307.63 1534.82 C 1364.34 1569.18 1457.76 1626.89 1522.67 1638.48 C 1544.57 1642.38 1564.73 1641.95 1583.45 1628.63 C 1602.6 1615.01 1609.11 1590.33 1610.4 1567.87 C 1611.05 1556.65 1610.5 1546.01 1612.46 1534.84 C 1631.32 1584.39 1643.03 1648.51 1620.73 1698.85 C 1605.77 1732.63 1580.81 1757.46 1546.11 1770.63 A 151.703 151.703 0 0 1 1497.9 1780.33 C 1421.04 1783.36 1314.2 1744.2 1244.7 1712.49 A 1178.92 1178.92 0 0 1 1213.19 1697.56 C 1194.2 1688.18 1171.03 1674.13 1149.15 1682.12 C 1137.93 1686.22 1130.28 1695.89 1125.49 1706.49 C 1125.35 1706.8 1125.23 1707.12 1125.09 1707.44 z"/>
</svg>